<svg width="14" height="14" viewBox="0 0 14 14" fill="none" xmlns="http://www.w3.org/2000/svg">
<path d="M7.19128 1.02151L7.1968 1.9129L7.46339 1.92665C8.44887 1.97573 9.46744 2.40572 10.2396 3.09684C10.6129 3.43062 11.021 3.93719 11.2692 4.37699C11.5855 4.93657 11.8098 5.59824 11.9072 6.26187C11.955 6.58387 11.955 7.43207 11.9072 7.75407C11.6627 9.41905 10.6846 10.8465 9.29277 11.5729C8.59411 11.9362 7.95613 12.0952 7.1876 12.0952C5.8767 12.0952 4.67059 11.5474 3.75866 10.5382C2.9552 9.65073 2.47901 8.4825 2.43121 7.28678L2.42017 7.00797H1.58362H0.74707L0.758102 7.33586C0.800389 8.59638 1.20855 9.88438 1.89986 10.9427C2.21609 11.4276 2.72538 12.0088 3.15193 12.372C3.98113 13.0789 4.9427 13.554 5.96495 13.7602C6.43746 13.8564 6.59926 13.8701 7.1876 13.8701C7.77595 13.8701 7.93774 13.8564 8.41026 13.7602C9.43251 13.554 10.3941 13.0789 11.2233 12.372C11.4972 12.1384 12.001 11.6024 12.2051 11.3275C12.8982 10.3949 13.3413 9.35229 13.5289 8.21547C13.6042 7.75407 13.6134 7.63627 13.6134 7.00797C13.6134 6.37968 13.6042 6.26187 13.5289 5.80047C13.1777 3.66623 11.8723 1.80295 10.065 0.854619C9.21923 0.408923 8.38084 0.17724 7.48545 0.141899L7.1876 0.130118L7.19128 1.02151Z" fill="#610000"/>
</svg>
