<svg width="25" height="24" viewBox="0 0 25 24" fill="none" xmlns="http://www.w3.org/2000/svg">
<g clip-path="url(#clip0_320_487)">
<path d="M12.5688 24C19.1963 24 24.5688 18.6274 24.5688 12C24.5688 5.37258 19.1963 0 12.5688 0C5.94143 0 0.568848 5.37258 0.568848 12C0.568848 18.6274 5.94143 24 12.5688 24Z" fill="url(#paint0_linear_320_487)"/>
<path d="M8.69189 12.8773L10.1156 16.8179C10.1156 16.8179 10.2936 17.1866 10.4842 17.1866C10.6748 17.1866 13.5097 14.2374 13.5097 14.2374L16.6622 8.14844L8.74269 11.8601L8.69189 12.8773Z" fill="#C8DAEA"/>
<path d="M10.5794 13.8877L10.3061 16.7923C10.3061 16.7923 10.1917 17.6823 11.0815 16.7923C11.9713 15.9023 12.823 15.216 12.823 15.216" fill="#A9C6D8"/>
<path d="M8.71756 13.0178L5.78896 12.0636C5.78896 12.0636 5.43896 11.9216 5.55166 11.5996C5.57486 11.5332 5.62166 11.4767 5.76166 11.3796C6.41056 10.9273 17.7723 6.84359 17.7723 6.84359C17.7723 6.84359 18.0931 6.73549 18.2823 6.80739C18.3291 6.82188 18.3712 6.84854 18.4043 6.88465C18.4374 6.92076 18.4604 6.96501 18.4708 7.01289C18.4912 7.09746 18.4997 7.18446 18.4962 7.27139C18.4953 7.34659 18.4862 7.41629 18.4793 7.52559C18.4101 8.64209 16.3393 16.9749 16.3393 16.9749C16.3393 16.9749 16.2154 17.4625 15.7715 17.4792C15.6624 17.4827 15.5537 17.4642 15.4519 17.4249C15.3501 17.3855 15.2573 17.326 15.179 17.25C14.3079 16.5007 11.2971 14.4773 10.6318 14.0323C10.6167 14.0221 10.6041 14.0087 10.5947 13.9932C10.5853 13.9777 10.5793 13.9603 10.5772 13.9423C10.5679 13.8954 10.6189 13.8373 10.6189 13.8373C10.6189 13.8373 15.8615 9.17729 16.001 8.68809C16.0118 8.65019 15.971 8.63149 15.9162 8.64809C15.568 8.77619 9.53176 12.5881 8.86556 13.0088C8.8176 13.0233 8.76692 13.0264 8.71756 13.0178Z" fill="#FEF4DC"/>
</g>
<defs>
<linearGradient id="paint0_linear_320_487" x1="12.5688" y1="24" x2="12.5688" y2="0" gradientUnits="userSpaceOnUse">
<stop stop-color="#1D93D2"/>
<stop offset="1" stop-color="#38B0E3"/>
</linearGradient>
<clipPath id="clip0_320_487">
<rect width="24" height="24" fill="white" transform="translate(0.568848)"/>
</clipPath>
</defs>
</svg>
